<?xml version="1.0" encoding="UTF-8" standalone="no"?>
<svg
   xmlns:dc="http://purl.org/dc/elements/1.1/"
   xmlns:cc="http://creativecommons.org/ns#"
   xmlns:rdf="http://www.w3.org/1999/02/22-rdf-syntax-ns#"
   xmlns:svg="http://www.w3.org/2000/svg"
   xmlns="http://www.w3.org/2000/svg"
   xmlns:sodipodi="http://sodipodi.sourceforge.net/DTD/sodipodi-0.dtd"
   xmlns:inkscape="http://www.inkscape.org/namespaces/inkscape"
   sodipodi:docname="icon.svg"
   inkscape:version="1.0 (4035a4fb49, 2020-05-01)"
   id="svg8"
   version="1.1"
   viewBox="0 0 28.575001 28.575001"
   height="108"
   width="108">
  <defs
     id="defs2" />
  <sodipodi:namedview
     inkscape:window-maximized="1"
     inkscape:window-y="-8"
     inkscape:window-x="-8"
     inkscape:window-height="1017"
     inkscape:window-width="1920"
     inkscape:snap-page="true"
     units="px"
     showgrid="false"
     inkscape:document-rotation="0"
     inkscape:current-layer="layer2"
     inkscape:document-units="mm"
     inkscape:cy="42.93941"
     inkscape:cx="77.598677"
     inkscape:zoom="3.959798"
     inkscape:pageshadow="2"
     inkscape:pageopacity="0.0"
     borderopacity="1.0"
     bordercolor="#666666"
     pagecolor="#ffffff"
     id="base" />
  <metadata
     id="metadata5">
    <rdf:RDF>
      <cc:Work
         rdf:about="">
        <dc:format>image/svg+xml</dc:format>
        <dc:type
           rdf:resource="http://purl.org/dc/dcmitype/StillImage" />
        <dc:title />
      </cc:Work>
    </rdf:RDF>
  </metadata>
  <g
     style="display:inline"
     id="layer1"
     inkscape:groupmode="layer"
     inkscape:label="Background">
    <rect
       y="0.1013175"
       x="0.1013175"
       height="28.372364"
       width="28.372364"
       id="rect23"
       style="fill:#0000ff;stroke:#000080;stroke-width:0.202635" />
  </g>
  <g
     inkscape:label="Helper"
     id="layer3"
     inkscape:groupmode="layer">
    <rect
       y="5.5664735"
       x="5.5664744"
       height="17.442053"
       width="17.442051"
       id="rect861"
       style="fill:#ff00ff;fill-opacity:1;stroke:#ff00ff;stroke-width:1.60795" />
  </g>
  <g
     inkscape:label="Foreground"
     id="layer2"
     inkscape:groupmode="layer">
    <text
       id="text27"
       y="7.0826421"
       x="8.15172"
       style="font-style:normal;font-weight:normal;font-size:10.5833px;line-height:1.25;font-family:sans-serif;fill:#000000;fill-opacity:1;stroke:none;stroke-width:0.264583"
       xml:space="preserve"><tspan
         style="stroke-width:0.264583"
         y="7.0826421"
         x="8.15172"
         id="tspan25"
         sodipodi:role="line" /></text>
    <text
       id="text31"
       y="9.6217031"
       x="5.3453903"
       style="font-size:10.5833px;line-height:1.25;font-family:'DejaVu Sans';-inkscape-font-specification:'DejaVu Sans';stroke-width:0.264583"
       xml:space="preserve"><tspan
         style="stroke-width:0.264583"
         y="9.6217031"
         x="5.3453903"
         id="tspan29"
         sodipodi:role="line" /></text>
    <g
       style="font-size:7.05556px;line-height:1.25;font-family:'DejaVu Sans';-inkscape-font-specification:'DejaVu Sans';stroke-width:0.264583"
       id="text35"
       transform="rotate(-26.562003,1.798686,-0.02371071)"
       aria-label="漢字">
      <path
         id="path881"
         style="font-size:7.05556px;fill:#ffffff;fill-opacity:1;stroke-width:0.264583"
         d="m -0.18542185,21.805917 q 0.6063372,-1.157553 0.93706658,-2.149741 l 0.44097247,0.38585 q -0.248047,0.964628 -0.71658029,2.039498 0,0.303169 -0.16536469,0.137804 z M 1.6335897,17.037901 v -0.440972 h 1.0473097 v -0.578777 h 0.5236549 q 0.2204863,0.02756 0.027561,0.165365 v 0.413412 h 0.9370666 v -0.578777 h 0.5236548 q 0.2204863,0.02756 0.027561,0.165365 v 0.413412 h 1.0748705 v 0.440972 H 4.7203973 v 0.523655 h 0.7717019 v 1.433161 H 3.9486954 v 0.440972 h 1.5985253 v 0.440973 H 3.9486954 l -0.027561,0.440972 h 2.0119371 v 0.440973 H 4.0589385 Q 4.499911,21.420066 6.015754,21.695673 L 5.8503893,22.27445 Q 4.3896679,22.026403 3.7006484,21.089336 3.0667504,22.191767 1.3855427,22.329571 L 1.2477388,21.750795 Q 2.9013857,21.640552 3.2872366,20.758607 H 1.5784682 V 20.317634 H 3.369919 L 3.39748,19.876662 H 1.9091976 V 19.435689 H 3.3974798 V 18.994717 H 2.6808994 1.9918799 v -1.433161 h 0.6890195 v -0.523655 z m 3.3072938,0.964628 H 3.9486954 v 0.551215 h 0.9921881 z m -1.5434037,0 H 2.5430955 v 0.551215 H 3.3974798 Z M 3.2321151,17.037901 v 0.523655 H 4.1691817 V 17.037901 Z M 0.91700942,19.049838 Q 0.5035977,18.691548 -0.02005716,18.38838 l 0.33072938,-0.523655 q 0.55121564,0.248047 0.93706658,0.606337 z M 1.0823741,17.396191 q -0.41341171,-0.38585 -0.881945,-0.689019 l 0.33072938,-0.496094 q 0.55121562,0.303168 0.88194502,0.633898 z" />
      <path
         id="path883"
         style="font-size:7.05556px;fill:#ffffff;fill-opacity:1;stroke-width:0.264583"
         d="m 10.342797,19.242764 v 0.35829 h 2.700956 v 0.523655 h -2.700956 v 1.598525 q 0,0.440973 -0.4409727,0.440973 H 9.1576831 L 9.0198792,21.640552 H 9.681338 q 0.1102431,0 0.1102431,-0.110243 v -1.4056 H 6.9252598 v -0.523655 h 2.8663213 v -0.71658 l 0.2756079,0.05512 0.771702,-0.523655 H 8.1930558 v -0.523654 h 3.1970502 l 0.110244,-0.110244 0.468533,0.468534 -0.165365,0.05512 z m -0.02756,-2.45291 h 2.563153 v 1.378039 H 12.327173 V 17.313509 H 7.6694009 v 0.909506 H 7.1181853 V 16.789854 H 9.681338 v -0.744141 h 0.606337 q 0.275608,0.05512 0.02756,0.220486 z" />
    </g>
    <g
       style="font-style:normal;font-variant:normal;font-weight:normal;font-stretch:normal;font-size:2.82222px;line-height:1.25;font-family:'Myanmar Text';-inkscape-font-specification:'Myanmar Text';stroke-width:0.264583"
       id="text879"
       transform="rotate(-26.68463,1.7905934,-0.02168759)"
       aria-label="かんじ">
      <path
         id="path893"
         style="font-style:normal;font-variant:normal;font-weight:normal;font-stretch:normal;font-size:2.82222px;font-family:'Yu Gothic';-inkscape-font-specification:'Yu Gothic';fill:none;stroke:#ffffff;stroke-width:0.264583"
         d="m 3.8949913,13.370921 q 0.064768,-0.214973 0.1061088,-0.396874 0.024805,-0.107487 0.024805,-0.21084 0,-0.03583 -0.00138,-0.06615 0.108865,0.02756 0.1915472,0.07028 0.020671,0.0124 0.020671,0.03169 0,0.01654 -0.015158,0.03032 -0.035829,0.03583 -0.050987,0.09095 -0.06339,0.232889 -0.1267794,0.434082 0.1681205,-0.02481 0.2880097,-0.02481 0.1998154,0 0.2797416,0.108865 0.075792,0.100597 0.075792,0.322461 0,0.587044 -0.1529621,0.90537 -0.1019748,0.214974 -0.2935219,0.214974 -0.1557182,0 -0.2921439,-0.05099 -0.026183,-0.0083 -0.026183,-0.03583 0,-0.06339 -0.027561,-0.136426 0.1763887,0.07717 0.3210826,0.07717 0.1212673,0 0.1901691,-0.143316 0.1350477,-0.292144 0.1350477,-0.8282 0,-0.184657 -0.050987,-0.250803 -0.046853,-0.06201 -0.1584743,-0.06201 -0.1143771,0 -0.3238387,0.03032 -0.2259981,0.693153 -0.5760195,1.343587 -0.00689,0.01654 -0.022049,0.01654 -0.00827,0 -0.01378,-0.0041 -0.00551,-0.0041 -0.048231,-0.03307 -0.030317,-0.02067 -0.042719,-0.03032 -0.00965,-0.0055 -0.00965,-0.01378 0,-0.0069 0.00689,-0.01929 0.3169485,-0.54708 0.5525929,-1.236099 -0.260449,0.03721 -0.369314,0.0565 -0.099219,0.01654 -0.1557182,0.0441 -0.023427,0.01102 -0.037207,0.01102 -0.022049,0 -0.033073,-0.02205 -0.033073,-0.07166 -0.053743,-0.158474 0.033073,0.0028 0.067524,0.0028 0.097841,0 0.2177299,-0.01378 0.1322915,-0.01378 0.4037649,-0.05374 z m 1.0128573,-0.110243 q 0.052365,-0.04134 0.099219,-0.06477 0.00689,-0.0028 0.012402,-0.0028 0.012402,0 0.026183,0.01102 0.3100583,0.268717 0.446484,0.683506 0.00413,0.01654 0.00413,0.02205 0,0.0124 -0.00965,0.02205 -0.028939,0.0248 -0.088194,0.05374 -0.012402,0.0069 -0.022049,0.0069 -0.017914,0 -0.023427,-0.02343 -0.1322916,-0.431326 -0.445106,-0.708312 z" />
      <path
         id="path895"
         style="font-style:normal;font-variant:normal;font-weight:normal;font-stretch:normal;font-size:2.82222px;font-family:'Yu Gothic';-inkscape-font-specification:'Yu Gothic';fill:none;stroke:#ffffff;stroke-width:0.264583"
         d="m 6.9941968,12.720488 q 0.095085,0.03721 0.1598523,0.08406 0.023427,0.01654 0.023427,0.03721 0,0.01516 -0.015158,0.03032 -0.046853,0.04134 -0.086816,0.115755 -0.2838757,0.547081 -0.5705074,1.072113 l 0.00827,0.0055 q 0.220486,-0.234266 0.4189233,-0.234266 0.2080836,0 0.3059243,0.144694 0.075792,0.111621 0.096463,0.327973 0.022049,0.227376 0.075792,0.316948 0.053743,0.09233 0.1612304,0.09233 0.2259981,0 0.3927406,-0.21773 0.1405598,-0.187413 0.2204859,-0.440972 0.027561,0.07304 0.079926,0.110243 0.016536,0.01378 0.016536,0.03445 0,0.01102 -0.00551,0.02756 -0.073036,0.195682 -0.2149738,0.378961 -0.1915472,0.248046 -0.482313,0.248046 -0.2039495,0 -0.2921439,-0.143315 -0.067524,-0.110243 -0.095085,-0.354156 -0.024805,-0.230132 -0.09095,-0.321083 -0.060634,-0.08268 -0.1791449,-0.08268 -0.186035,0 -0.4010088,0.242535 -0.1364257,0.163986 -0.3527775,0.62425 -0.00827,0.01929 -0.023427,0.01929 -0.00689,0 -0.019292,-0.0055 -0.0565,-0.02756 -0.09095,-0.05374 -0.011024,-0.0083 -0.011024,-0.01929 0,-0.0069 0.00551,-0.01654 0.5291662,-1.032149 0.8640293,-1.73357 0.078548,-0.158475 0.1019747,-0.289388 z" />
      <path
         id="path897"
         style="font-style:normal;font-variant:normal;font-weight:normal;font-stretch:normal;font-size:2.82222px;font-family:'Yu Gothic';-inkscape-font-specification:'Yu Gothic';fill:none;stroke:#ffffff;stroke-width:0.264583"
         d="m 10.31251,13.001607 0.08544,-0.05926 q 0.0055,-0.0041 0.01102,-0.0041 0.0041,0 0.01102,0.0041 0.162609,0.110243 0.318327,0.341753 0.0055,0.0069 0.0055,0.0124 0,0.0055 -0.0069,0.01378 l -0.0689,0.0565 q -0.0055,0.0055 -0.0124,0.0055 -0.0096,0 -0.01792,-0.0124 -0.143316,-0.225998 -0.325217,-0.35829 z m 0.237023,-0.17501 0.07441,-0.0565 q 0.0083,-0.0055 0.01378,-0.0055 0.0055,0 0.01102,0.0041 0.191547,0.139182 0.318327,0.323839 0.0055,0.0083 0.0055,0.01516 0,0.0083 -0.01102,0.01516 l -0.06477,0.0565 q -0.0055,0.0055 -0.0124,0.0055 -0.0069,0 -0.01516,-0.01102 -0.136425,-0.21084 -0.319704,-0.347265 z M 9.3134333,12.708086 q 0.1240234,0.01654 0.1998154,0.03721 0.037207,0.0124 0.037207,0.03996 0,0.0083 -0.022049,0.06477 -0.020671,0.04685 -0.034451,0.27423 -0.044097,0.843358 -0.044097,1.204404 0,0.268717 0.093706,0.36518 0.078548,0.0813 0.2618271,0.0813 0.5333002,0 1.0045892,-0.531922 0.0124,0.07441 0.04272,0.130913 0.0083,0.01654 0.0083,0.02756 0,0.01378 -0.02481,0.03996 -0.490581,0.479557 -1.0624661,0.479557 -0.261827,0 -0.3748261,-0.146072 -0.1047308,-0.135047 -0.1047308,-0.421679 0,-0.198437 0.042719,-1.247124 0.00413,-0.08682 0.00413,-0.14745 0,-0.14056 -0.027561,-0.250802 z" />
    </g>
  </g>
</svg>
